<mxfile host="app.diagrams.net" modified="2021-07-13T07:21:36.220Z" agent="5.0 (Windows NT 10.0; Win64; x64) AppleWebKit/537.36 (KHTML, like Gecko) Chrome/91.0.4472.123 Safari/537.36" etag="lGHqyGDgqA8tdMIiZsfE" version="14.8.6" type="github">
  <diagram id="C5RBs43oDa-KdzZeNtuy" name="Page-1">
    <mxGraphModel dx="1038" dy="624" grid="1" gridSize="10" guides="1" tooltips="1" connect="1" arrows="1" fold="1" page="1" pageScale="1" pageWidth="827" pageHeight="1169" math="0" shadow="0">
      <root>
        <mxCell id="WIyWlLk6GJQsqaUBKTNV-0" />
        <mxCell id="WIyWlLk6GJQsqaUBKTNV-1" parent="WIyWlLk6GJQsqaUBKTNV-0" />
        <mxCell id="IMK7nWlDwTXxxlAkSS1M-1" value="" style="edgeStyle=orthogonalEdgeStyle;rounded=0;orthogonalLoop=1;jettySize=auto;html=1;" edge="1" parent="WIyWlLk6GJQsqaUBKTNV-1" source="WIyWlLk6GJQsqaUBKTNV-3" target="IMK7nWlDwTXxxlAkSS1M-0">
          <mxGeometry relative="1" as="geometry" />
        </mxCell>
        <mxCell id="WIyWlLk6GJQsqaUBKTNV-3" value="Start" style="rounded=1;whiteSpace=wrap;html=1;fontSize=12;glass=0;strokeWidth=1;shadow=0;" parent="WIyWlLk6GJQsqaUBKTNV-1" vertex="1">
          <mxGeometry x="354" y="40" width="120" height="40" as="geometry" />
        </mxCell>
        <mxCell id="IMK7nWlDwTXxxlAkSS1M-3" style="edgeStyle=orthogonalEdgeStyle;rounded=0;orthogonalLoop=1;jettySize=auto;html=1;entryX=0;entryY=0.5;entryDx=0;entryDy=0;" edge="1" parent="WIyWlLk6GJQsqaUBKTNV-1" source="IMK7nWlDwTXxxlAkSS1M-0" target="IMK7nWlDwTXxxlAkSS1M-2">
          <mxGeometry relative="1" as="geometry" />
        </mxCell>
        <mxCell id="IMK7nWlDwTXxxlAkSS1M-5" style="edgeStyle=orthogonalEdgeStyle;rounded=0;orthogonalLoop=1;jettySize=auto;html=1;entryX=0.5;entryY=0;entryDx=0;entryDy=0;" edge="1" parent="WIyWlLk6GJQsqaUBKTNV-1" source="IMK7nWlDwTXxxlAkSS1M-0" target="IMK7nWlDwTXxxlAkSS1M-4">
          <mxGeometry relative="1" as="geometry" />
        </mxCell>
        <mxCell id="IMK7nWlDwTXxxlAkSS1M-0" value="input dataframe,&amp;nbsp;&lt;br&gt;configuration details" style="shape=parallelogram;perimeter=parallelogramPerimeter;whiteSpace=wrap;html=1;fixedSize=1;" vertex="1" parent="WIyWlLk6GJQsqaUBKTNV-1">
          <mxGeometry x="341" y="120" width="146" height="60" as="geometry" />
        </mxCell>
        <mxCell id="IMK7nWlDwTXxxlAkSS1M-2" value="&lt;b&gt;&lt;u&gt;Configuration details&lt;br&gt;&lt;/u&gt;&lt;/b&gt;select columns&lt;br&gt;group by columns&lt;br&gt;partition by columns&lt;br&gt;order by columns&lt;br&gt;is_window&lt;br&gt;aggr expression&lt;br&gt;order&lt;br&gt;alias&lt;br&gt;additional columns&lt;br&gt;drop columns&lt;br&gt;filter condition" style="whiteSpace=wrap;html=1;" vertex="1" parent="WIyWlLk6GJQsqaUBKTNV-1">
          <mxGeometry x="570" y="40" width="120" height="240" as="geometry" />
        </mxCell>
        <mxCell id="IMK7nWlDwTXxxlAkSS1M-7" style="edgeStyle=orthogonalEdgeStyle;rounded=0;orthogonalLoop=1;jettySize=auto;html=1;entryX=0.5;entryY=0;entryDx=0;entryDy=0;" edge="1" parent="WIyWlLk6GJQsqaUBKTNV-1" source="IMK7nWlDwTXxxlAkSS1M-4" target="IMK7nWlDwTXxxlAkSS1M-6">
          <mxGeometry relative="1" as="geometry" />
        </mxCell>
        <mxCell id="IMK7nWlDwTXxxlAkSS1M-4" value="Loop through the configurations ordered by sequence" style="whiteSpace=wrap;html=1;" vertex="1" parent="WIyWlLk6GJQsqaUBKTNV-1">
          <mxGeometry x="120" y="170" width="120" height="60" as="geometry" />
        </mxCell>
        <mxCell id="IMK7nWlDwTXxxlAkSS1M-9" value="" style="edgeStyle=orthogonalEdgeStyle;rounded=0;orthogonalLoop=1;jettySize=auto;html=1;" edge="1" parent="WIyWlLk6GJQsqaUBKTNV-1" source="IMK7nWlDwTXxxlAkSS1M-6" target="IMK7nWlDwTXxxlAkSS1M-8">
          <mxGeometry relative="1" as="geometry" />
        </mxCell>
        <mxCell id="IMK7nWlDwTXxxlAkSS1M-6" value="filter the dataframe using filter condition" style="whiteSpace=wrap;html=1;" vertex="1" parent="WIyWlLk6GJQsqaUBKTNV-1">
          <mxGeometry x="354" y="230" width="120" height="60" as="geometry" />
        </mxCell>
        <mxCell id="IMK7nWlDwTXxxlAkSS1M-11" value="" style="edgeStyle=orthogonalEdgeStyle;rounded=0;orthogonalLoop=1;jettySize=auto;html=1;" edge="1" parent="WIyWlLk6GJQsqaUBKTNV-1" source="IMK7nWlDwTXxxlAkSS1M-8" target="IMK7nWlDwTXxxlAkSS1M-10">
          <mxGeometry relative="1" as="geometry" />
        </mxCell>
        <mxCell id="IMK7nWlDwTXxxlAkSS1M-8" value="create or replace temp view of input dataframe" style="whiteSpace=wrap;html=1;" vertex="1" parent="WIyWlLk6GJQsqaUBKTNV-1">
          <mxGeometry x="354" y="370" width="120" height="60" as="geometry" />
        </mxCell>
        <mxCell id="IMK7nWlDwTXxxlAkSS1M-13" value="" style="edgeStyle=orthogonalEdgeStyle;rounded=0;orthogonalLoop=1;jettySize=auto;html=1;" edge="1" parent="WIyWlLk6GJQsqaUBKTNV-1" source="IMK7nWlDwTXxxlAkSS1M-10" target="IMK7nWlDwTXxxlAkSS1M-12">
          <mxGeometry relative="1" as="geometry" />
        </mxCell>
        <mxCell id="IMK7nWlDwTXxxlAkSS1M-28" value="" style="edgeStyle=orthogonalEdgeStyle;rounded=0;orthogonalLoop=1;jettySize=auto;html=1;" edge="1" parent="WIyWlLk6GJQsqaUBKTNV-1" source="IMK7nWlDwTXxxlAkSS1M-10" target="IMK7nWlDwTXxxlAkSS1M-22">
          <mxGeometry relative="1" as="geometry" />
        </mxCell>
        <mxCell id="IMK7nWlDwTXxxlAkSS1M-10" value="is window = false" style="rhombus;whiteSpace=wrap;html=1;" vertex="1" parent="WIyWlLk6GJQsqaUBKTNV-1">
          <mxGeometry x="360" y="500" width="109" height="80" as="geometry" />
        </mxCell>
        <mxCell id="IMK7nWlDwTXxxlAkSS1M-14" style="edgeStyle=orthogonalEdgeStyle;rounded=0;orthogonalLoop=1;jettySize=auto;html=1;" edge="1" parent="WIyWlLk6GJQsqaUBKTNV-1" source="IMK7nWlDwTXxxlAkSS1M-12">
          <mxGeometry relative="1" as="geometry">
            <mxPoint x="730" y="539.5" as="targetPoint" />
          </mxGeometry>
        </mxCell>
        <mxCell id="IMK7nWlDwTXxxlAkSS1M-19" value="" style="edgeStyle=orthogonalEdgeStyle;rounded=0;orthogonalLoop=1;jettySize=auto;html=1;" edge="1" parent="WIyWlLk6GJQsqaUBKTNV-1" source="IMK7nWlDwTXxxlAkSS1M-12" target="IMK7nWlDwTXxxlAkSS1M-18">
          <mxGeometry relative="1" as="geometry" />
        </mxCell>
        <mxCell id="IMK7nWlDwTXxxlAkSS1M-12" value="dataframe &lt;br&gt;columns contains group by columns" style="rhombus;whiteSpace=wrap;html=1;" vertex="1" parent="WIyWlLk6GJQsqaUBKTNV-1">
          <mxGeometry x="549" y="480" width="141" height="119" as="geometry" />
        </mxCell>
        <mxCell id="IMK7nWlDwTXxxlAkSS1M-15" value="Control Point" style="whiteSpace=wrap;html=1;" vertex="1" parent="WIyWlLk6GJQsqaUBKTNV-1">
          <mxGeometry x="730" y="509.5" width="90" height="60" as="geometry" />
        </mxCell>
        <mxCell id="IMK7nWlDwTXxxlAkSS1M-16" value="Yes" style="text;html=1;align=center;verticalAlign=middle;resizable=0;points=[];autosize=1;strokeColor=none;" vertex="1" parent="WIyWlLk6GJQsqaUBKTNV-1">
          <mxGeometry x="485" y="510" width="30" height="20" as="geometry" />
        </mxCell>
        <mxCell id="IMK7nWlDwTXxxlAkSS1M-17" value="No" style="text;html=1;align=center;verticalAlign=middle;resizable=0;points=[];autosize=1;strokeColor=none;" vertex="1" parent="WIyWlLk6GJQsqaUBKTNV-1">
          <mxGeometry x="685" y="510" width="30" height="20" as="geometry" />
        </mxCell>
        <mxCell id="IMK7nWlDwTXxxlAkSS1M-38" style="edgeStyle=orthogonalEdgeStyle;rounded=0;orthogonalLoop=1;jettySize=auto;html=1;entryX=1;entryY=0.5;entryDx=0;entryDy=0;" edge="1" parent="WIyWlLk6GJQsqaUBKTNV-1" source="IMK7nWlDwTXxxlAkSS1M-18" target="IMK7nWlDwTXxxlAkSS1M-37">
          <mxGeometry relative="1" as="geometry">
            <Array as="points">
              <mxPoint x="710" y="739" />
              <mxPoint x="710" y="970" />
            </Array>
          </mxGeometry>
        </mxCell>
        <mxCell id="IMK7nWlDwTXxxlAkSS1M-18" value="Build query using select columns, group by columns and agg expr" style="whiteSpace=wrap;html=1;" vertex="1" parent="WIyWlLk6GJQsqaUBKTNV-1">
          <mxGeometry x="559.5" y="708.5" width="120" height="60" as="geometry" />
        </mxCell>
        <mxCell id="IMK7nWlDwTXxxlAkSS1M-26" value="" style="edgeStyle=orthogonalEdgeStyle;rounded=0;orthogonalLoop=1;jettySize=auto;html=1;" edge="1" parent="WIyWlLk6GJQsqaUBKTNV-1" source="IMK7nWlDwTXxxlAkSS1M-22" target="IMK7nWlDwTXxxlAkSS1M-25">
          <mxGeometry relative="1" as="geometry" />
        </mxCell>
        <mxCell id="IMK7nWlDwTXxxlAkSS1M-31" value="" style="edgeStyle=orthogonalEdgeStyle;rounded=0;orthogonalLoop=1;jettySize=auto;html=1;" edge="1" parent="WIyWlLk6GJQsqaUBKTNV-1" source="IMK7nWlDwTXxxlAkSS1M-22" target="IMK7nWlDwTXxxlAkSS1M-30">
          <mxGeometry relative="1" as="geometry" />
        </mxCell>
        <mxCell id="IMK7nWlDwTXxxlAkSS1M-22" value="dataframe &lt;br&gt;columns contains &lt;br&gt;partition by &lt;br&gt;columns" style="rhombus;whiteSpace=wrap;html=1;" vertex="1" parent="WIyWlLk6GJQsqaUBKTNV-1">
          <mxGeometry x="344" y="621" width="141" height="119" as="geometry" />
        </mxCell>
        <mxCell id="IMK7nWlDwTXxxlAkSS1M-23" value="No" style="text;html=1;align=center;verticalAlign=middle;resizable=0;points=[];autosize=1;strokeColor=none;" vertex="1" parent="WIyWlLk6GJQsqaUBKTNV-1">
          <mxGeometry x="380" y="585" width="30" height="20" as="geometry" />
        </mxCell>
        <mxCell id="IMK7nWlDwTXxxlAkSS1M-24" value="Yes" style="text;html=1;align=center;verticalAlign=middle;resizable=0;points=[];autosize=1;strokeColor=none;" vertex="1" parent="WIyWlLk6GJQsqaUBKTNV-1">
          <mxGeometry x="625" y="650" width="30" height="20" as="geometry" />
        </mxCell>
        <mxCell id="IMK7nWlDwTXxxlAkSS1M-25" value="Control Point" style="whiteSpace=wrap;html=1;" vertex="1" parent="WIyWlLk6GJQsqaUBKTNV-1">
          <mxGeometry x="200" y="650.5" width="90" height="60" as="geometry" />
        </mxCell>
        <mxCell id="IMK7nWlDwTXxxlAkSS1M-27" value="No" style="text;html=1;align=center;verticalAlign=middle;resizable=0;points=[];autosize=1;strokeColor=none;" vertex="1" parent="WIyWlLk6GJQsqaUBKTNV-1">
          <mxGeometry x="310" y="660" width="30" height="20" as="geometry" />
        </mxCell>
        <mxCell id="IMK7nWlDwTXxxlAkSS1M-39" style="edgeStyle=orthogonalEdgeStyle;rounded=0;orthogonalLoop=1;jettySize=auto;html=1;entryX=0;entryY=0.5;entryDx=0;entryDy=0;" edge="1" parent="WIyWlLk6GJQsqaUBKTNV-1" source="IMK7nWlDwTXxxlAkSS1M-30" target="IMK7nWlDwTXxxlAkSS1M-37">
          <mxGeometry relative="1" as="geometry">
            <Array as="points">
              <mxPoint x="415" y="970" />
            </Array>
          </mxGeometry>
        </mxCell>
        <mxCell id="IMK7nWlDwTXxxlAkSS1M-30" value="&lt;span&gt;Build query using select columns, partition by columns, order by columns, order and agg expr&lt;/span&gt;" style="whiteSpace=wrap;html=1;" vertex="1" parent="WIyWlLk6GJQsqaUBKTNV-1">
          <mxGeometry x="354.5" y="849.5" width="120" height="70.5" as="geometry" />
        </mxCell>
        <mxCell id="IMK7nWlDwTXxxlAkSS1M-41" value="" style="edgeStyle=orthogonalEdgeStyle;rounded=0;orthogonalLoop=1;jettySize=auto;html=1;" edge="1" parent="WIyWlLk6GJQsqaUBKTNV-1" source="IMK7nWlDwTXxxlAkSS1M-37" target="IMK7nWlDwTXxxlAkSS1M-40">
          <mxGeometry relative="1" as="geometry" />
        </mxCell>
        <mxCell id="IMK7nWlDwTXxxlAkSS1M-37" value="Execute the Query" style="whiteSpace=wrap;html=1;" vertex="1" parent="WIyWlLk6GJQsqaUBKTNV-1">
          <mxGeometry x="505" y="940" width="120" height="60" as="geometry" />
        </mxCell>
        <mxCell id="IMK7nWlDwTXxxlAkSS1M-42" style="edgeStyle=orthogonalEdgeStyle;rounded=0;orthogonalLoop=1;jettySize=auto;html=1;entryX=0.5;entryY=1;entryDx=0;entryDy=0;" edge="1" parent="WIyWlLk6GJQsqaUBKTNV-1" source="IMK7nWlDwTXxxlAkSS1M-40" target="IMK7nWlDwTXxxlAkSS1M-4">
          <mxGeometry relative="1" as="geometry" />
        </mxCell>
        <mxCell id="IMK7nWlDwTXxxlAkSS1M-44" value="" style="edgeStyle=orthogonalEdgeStyle;rounded=0;orthogonalLoop=1;jettySize=auto;html=1;" edge="1" parent="WIyWlLk6GJQsqaUBKTNV-1" source="IMK7nWlDwTXxxlAkSS1M-40" target="IMK7nWlDwTXxxlAkSS1M-43">
          <mxGeometry relative="1" as="geometry" />
        </mxCell>
        <mxCell id="IMK7nWlDwTXxxlAkSS1M-40" value="Add additional columns, filter the df and drop columns as per configuration" style="whiteSpace=wrap;html=1;" vertex="1" parent="WIyWlLk6GJQsqaUBKTNV-1">
          <mxGeometry x="505" y="1080" width="120" height="60" as="geometry" />
        </mxCell>
        <mxCell id="IMK7nWlDwTXxxlAkSS1M-43" value="End" style="rounded=1;whiteSpace=wrap;html=1;" vertex="1" parent="WIyWlLk6GJQsqaUBKTNV-1">
          <mxGeometry x="679.5" y="1080" width="120" height="60" as="geometry" />
        </mxCell>
        <mxCell id="IMK7nWlDwTXxxlAkSS1M-45" value="&lt;b&gt;&lt;font style=&quot;font-size: 14px&quot;&gt;GENERIC AGGREGATION&lt;/font&gt;&lt;/b&gt;" style="whiteSpace=wrap;html=1;" vertex="1" parent="WIyWlLk6GJQsqaUBKTNV-1">
          <mxGeometry x="20" y="20" width="220" height="100" as="geometry" />
        </mxCell>
      </root>
    </mxGraphModel>
  </diagram>
</mxfile>
